<svg xmlns="http://www.w3.org/2000/svg" width="512" height="512" viewBox="0 0 512 512" version="1.1">
	<path d="M 56.655 21.597 C 41.965 24.251, 27.107 30.279, 8.750 41.032 L 0 46.158 0.032 98.329 L 0.063 150.500 2.468 147.769 C 3.958 146.076, 5.101 143.225, 5.475 140.269 C 9.209 110.739, 14.345 98.390, 28.337 85.301 C 42.765 71.805, 67.823 63.957, 86.991 66.931 C 102.337 69.312, 113.658 75.660, 127.850 89.844 C 137.388 99.376, 143.888 103.919, 148.068 103.978 C 152.290 104.037, 160.723 100.380, 169.158 94.833 C 184.051 85.037, 194.270 82.416, 205.923 85.402 C 219.695 88.930, 231.443 98.206, 236.757 109.747 C 238.840 114.272, 239.493 117.461, 239.819 124.687 C 240.706 144.367, 232.229 158.688, 215.157 166.349 C 200.939 172.730, 189.857 172.058, 174.248 163.868 C 157.947 155.315, 151.735 155.354, 142.521 164.069 C 139.662 166.772, 136.521 170.450, 135.539 172.242 C 134.558 174.034, 131.898 177.014, 129.628 178.864 C 119.381 187.217, 114.242 198.300, 115.396 209.563 C 116.198 217.391, 118.467 223.998, 124.425 235.856 C 130.189 247.326, 135.520 262.986, 137.071 273 C 137.767 277.493, 138.033 286.313, 137.734 295 C 137.144 312.180, 134.665 323.011, 126.806 342.755 C 122.590 353.346, 121.725 356.599, 121.683 362 C 121.620 370.233, 123.220 373.396, 132.135 382.656 C 140.157 390.989, 143.441 397.414, 145.088 408.005 C 146.892 419.597, 148.773 425.577, 151.717 429.076 C 154.750 432.680, 161.129 435.945, 165.203 435.978 C 168.755 436.007, 172.725 437.866, 173.548 439.885 C 173.910 440.773, 174.328 446.230, 174.477 452.011 C 174.940 469.985, 180.431 485.091, 191.928 500.017 C 195.112 504.151, 198.036 508.539, 198.426 509.767 C 199.135 511.999, 199.141 512, 224.176 512 L 249.217 512 248.534 509.250 C 246.023 499.140, 236.616 480.279, 228.876 469.835 C 222.461 461.179, 220.669 455.858, 221.172 446.956 C 221.807 435.729, 218.151 436.531, 267.249 436.838 C 310.448 437.108, 326.390 436.382, 340.500 433.498 C 387.524 423.890, 429.176 391.099, 451.576 346.051 C 478.142 292.626, 473.478 233.377, 438.623 181.500 C 430.357 169.196, 410.315 149.236, 398.053 141.096 C 370.557 122.842, 337.087 113.005, 302.462 113.001 C 297.153 113, 294.328 112.447, 290.962 110.750 C 286.140 108.319, 284.905 106.371, 278.746 91.495 C 268.458 66.645, 247.092 48.071, 220.500 40.863 C 214.182 39.151, 209.661 38.689, 199 38.668 C 184.488 38.639, 177.115 39.923, 164.664 44.647 C 155.611 48.082, 152.208 47.551, 142.862 41.244 C 116.868 23.704, 85.085 16.460, 56.655 21.597 M 54.491 240.865 C 49.608 243.084, 44.680 248.504, 42.856 253.664 C 41.797 256.659, 41.500 266.704, 41.500 299.500 L 41.500 341.500 44.604 347 C 46.396 350.176, 49.496 353.768, 51.940 355.500 C 55.826 358.254, 56.854 358.500, 64.500 358.500 C 72.154 358.500, 73.178 358.255, 77.164 355.466 C 79.810 353.615, 82.669 350.302, 84.500 346.966 L 87.500 341.500 87.500 299.500 C 87.500 253.564, 87.419 252.824, 81.653 246.257 C 77.367 241.376, 71.821 239.044, 64.500 239.044 C 60.831 239.044, 56.943 239.751, 54.491 240.865" stroke="none" fill="black" fill-rule="evenodd"/>
</svg>